<svg xmlns="http://www.w3.org/2000/svg" width="256" height="256" viewBox="0 0 100 100"><rect width="100" height="100" rx="50" fill="#50e3c2"></rect><path d="M68.80 64L68.80 64Q68.80 71.28 63.36 76.24Q57.92 81.20 49.36 81.20L49.36 81.20Q42.72 81.20 36.96 78.04Q31.20 74.88 31.20 71.76L31.20 71.76Q31.20 70.56 31.96 69.76Q32.72 68.96 33.92 68.96Q35.12 68.96 36.60 70Q38.08 71.04 39.40 72.28Q40.72 73.52 43.40 74.56Q46.08 75.60 49.36 75.60L49.36 75.60Q54.96 75.60 58.68 72.44Q62.40 69.28 62.40 64L62.40 64Q62.40 60.48 59.40 57.40Q56.40 54.32 52.12 51.88Q47.84 49.44 43.56 46.88Q39.28 44.32 36.28 40.72Q33.28 37.12 33.28 32.80L33.28 32.80Q33.28 27.12 38.20 22.96Q43.12 18.80 49.68 18.80Q56.24 18.80 60.88 21.04Q65.52 23.28 65.52 26.08L65.52 26.08Q65.52 27.36 64.76 28.08Q64 28.80 62.80 28.80Q61.60 28.80 60.40 28.12Q59.20 27.44 58.20 26.60Q57.20 25.76 55.12 25.08Q53.04 24.40 49.56 24.40Q46.08 24.40 42.88 26.76Q39.68 29.12 39.68 32.44Q39.68 35.76 42.68 38.52Q45.68 41.28 49.96 43.72Q54.24 46.16 58.52 48.84Q62.80 51.52 65.80 55.44Q68.80 59.36 68.80 64Z" fill="#fff"></path></svg>